<svg xmlns="http://www.w3.org/2000/svg" viewBox="0 0 75 75"><defs><style>.cls-1{fill:none;opacity:0.51;}.cls-2{fill:#00aa21;}</style></defs><g id="green_cross"><rect id="background" class="cls-1" width="75" height="75"/><path id="green_cross-2" data-name="green_cross" class="cls-2" d="M54.6,29.22H47.43V22.05a8.08,8.08,0,0,0-8.06-8h-.45a8.08,8.08,0,0,0-8,8.05v7.17H23.7a8.08,8.08,0,0,0-8,8.06v.44a8.08,8.08,0,0,0,8,8.06h7.17V53a8.08,8.08,0,0,0,8.05,8h.45a8.08,8.08,0,0,0,8.06-8V45.78H54.6a8.08,8.08,0,0,0,8-8.06v-.44A8.08,8.08,0,0,0,54.6,29.22Z"/></g></svg>