<svg id="person" xmlns="http://www.w3.org/2000/svg" viewBox="0 0 75 75"><defs><style>.cls-1{fill:none;opacity:0.51;}.cls-2{fill:#f2f2f2;}</style></defs><rect id="background" class="cls-1" width="75" height="75"/><g id="body"><g id="body_group"><path id="torso" class="cls-2" d="M43.9,32.5H31.1a15,15,0,0,0-15,15V66.05a5,5,0,0,0,5,5H53.9a5,5,0,0,0,5-5V47.5A15,15,0,0,0,43.9,32.5Z"/><path id="head" class="cls-2" d="M37.5,31A10.88,10.88,0,0,0,48.35,20.16V14.8a10.85,10.85,0,1,0-21.7,0v5.36A10.88,10.88,0,0,0,37.5,31Z"/></g></g></svg>