<svg xmlns="http://www.w3.org/2000/svg" viewBox="0 0 75 75"><defs><style>.cls-1{fill:none;opacity:0.51;}.cls-2{fill:#f2f2f2;}.cls-3{fill:#9f1100;}</style></defs><g id="person_remove"><rect id="background" class="cls-1" width="75" height="75"/><g id="body-3" data-name="body"><g id="body_group"><path id="torso" class="cls-2" d="M43.9,32.5H31.1a15,15,0,0,0-15,15V66.05a5,5,0,0,0,5,5H53.9a5,5,0,0,0,5-5V47.5A15,15,0,0,0,43.9,32.5Z"/><path id="head" class="cls-2" d="M37.5,31A10.88,10.88,0,0,0,48.35,20.16V14.8a10.85,10.85,0,1,0-21.7,0v5.36A10.88,10.88,0,0,0,37.5,31Z"/></g><rect class="cls-3" x="45.19" y="53.34" width="22.93" height="10" rx="4.22"/></g></g></svg>