<svg xmlns="http://www.w3.org/2000/svg" viewBox="0 0 75 75"><defs><style>.cls-1,.cls-5{fill:none;}.cls-1{opacity:0.51;}.cls-2{fill:#f2f2f2;}.cls-3{fill:#00a99d;}.cls-4{fill:#d9d9d9;stroke:gray;stroke-width:1.8px;}.cls-4,.cls-5{stroke-linecap:round;stroke-miterlimit:10;}.cls-5{stroke:#333;stroke-width:1.87px;}.cls-6{fill:gray;}</style></defs><g id="person_update"><rect id="background" class="cls-1" width="75" height="75"/><g id="body-5" data-name="body"><g id="body_group"><path id="torso" class="cls-2" d="M43.9,32.5H31.1a15,15,0,0,0-15,15V66.05a5,5,0,0,0,5,5H53.9a5,5,0,0,0,5-5V47.5A15,15,0,0,0,43.9,32.5Z"/><path id="head" class="cls-2" d="M37.5,31A10.88,10.88,0,0,0,48.35,20.16V14.8a10.85,10.85,0,1,0-21.7,0v5.36A10.88,10.88,0,0,0,37.5,31Z"/></g><g id="floppy_disk"><rect class="cls-3" x="44.79" y="43.56" width="21.7" height="25.79" rx="5.15"/><line class="cls-4" x1="49.62" y1="66.25" x2="49.62" y2="64.33"/><g id="stickers"><rect class="cls-2" x="47.14" y="44.22" width="16.99" height="17.33" rx="3.74"/><g id="lines"><line class="cls-5" x1="49.87" y1="47.99" x2="61.03" y2="48.09"/><line class="cls-5" x1="49.77" y1="52.21" x2="60.94" y2="52.31"/><line class="cls-5" x1="49.85" y1="57.01" x2="61.01" y2="57.11"/></g></g><rect class="cls-6" x="52.72" y="63.07" width="9.3" height="4.58" rx="1.26"/></g></g></g></svg>