<svg xmlns="http://www.w3.org/2000/svg" viewBox="0 0 75 75"><defs><style>.cls-1,.cls-3{fill:none;}.cls-1{opacity:0.51;}.cls-2{fill:#f2f2f2;}.cls-3{stroke:#333;stroke-miterlimit:10;stroke-width:5.11px;}.cls-4{fill:#333;}</style></defs><g id="person_search"><rect id="background" class="cls-1" x="0.09" width="75" height="75"/><g id="body-4" data-name="body"><g id="body_group"><path id="torso" class="cls-2" d="M44,32.5H31.18a15,15,0,0,0-15,15V66.05a5,5,0,0,0,5,5H54a5,5,0,0,0,5-5V47.5A15,15,0,0,0,44,32.5Z"/><path id="head" class="cls-2" d="M37.59,31A10.89,10.89,0,0,0,48.44,20.16V14.8a10.86,10.86,0,0,0-21.71,0v5.36A10.89,10.89,0,0,0,37.59,31Z"/></g><ellipse class="cls-3" cx="51.25" cy="56.45" rx="7.77" ry="8.1"/><path class="cls-4" d="M62.37,68.38l-6.45-4.52c-1.07-.75-1.21-2.52-.31-3.92h0c.9-1.41,2.52-1.94,3.6-1.19l6.45,4.52c1.08.75,1.22,2.52.32,3.92h0C65.07,68.6,63.45,69.13,62.37,68.38Z"/></g></g></svg>