<svg xmlns="http://www.w3.org/2000/svg" viewBox="0 0 75 75"><defs><style>.cls-1,.cls-2,.cls-3,.cls-4,.cls-6{fill:none;}.cls-1{opacity:0.51;}.cls-2,.cls-3,.cls-4,.cls-5,.cls-6{stroke:#000;stroke-miterlimit:10;}.cls-2{stroke-width:4.54px;}.cls-3{stroke-width:3.24px;}.cls-4{stroke-width:7.24px;}.cls-5{stroke-width:5.45px;}.cls-6{stroke-width:3.01px;}</style></defs><g id="author_logo"><rect id="background" class="cls-1" width="75" height="75"/><path class="cls-2" d="M28.88,28.19,29.46,55l-3.83-4"/><path class="cls-3" d="M30.7,23.42c-.26.45-.94,1.62-1.89,1.62s-1.75-1.45-2-1.91a4.07,4.07,0,0,1-.43-2.46,15.7,15.7,0,0,1,1.08-2.39,9.49,9.49,0,0,0,.72-2s0-.25.08-.56.07-.41.09-.51c.19-1.16.21-1.26.26-1.27.21,0,.58,1.16.61,1.25s.11.32.17.53a5.21,5.21,0,0,1,.14.55,12.71,12.71,0,0,0,.77,2,12,12,0,0,1,.91,2.22A4.41,4.41,0,0,1,30.7,23.42Z"/><path class="cls-4" d="M47.56,21.11A19.44,19.44,0,0,1,37.41,57.38"/><circle class="cls-5" cx="40.86" cy="38.22" r="3.39"/><ellipse class="cls-6" cx="37.5" cy="37.5" rx="33.32" ry="33.18"/></g></svg>